<?xml version="1.0" encoding="UTF-8" standalone="no"?>
<!-- Created with Inkscape (http://www.inkscape.org/) -->

<svg
   width="210mm"
   height="210mm"
   viewBox="0 0 210 210"
   version="1.1"
   id="svg1"
   xml:space="preserve"
   inkscape:version="1.2.2 (b0a8486541, 2022-12-01)"
   sodipodi:docname="nomore99.svg"
   xmlns:inkscape="http://www.inkscape.org/namespaces/inkscape"
   xmlns:sodipodi="http://sodipodi.sourceforge.net/DTD/sodipodi-0.dtd"
   xmlns="http://www.w3.org/2000/svg"
   xmlns:svg="http://www.w3.org/2000/svg"><sodipodi:namedview
     id="namedview1"
     pagecolor="#505050"
     bordercolor="#eeeeee"
     borderopacity="1"
     inkscape:showpageshadow="0"
     inkscape:pageopacity="0"
     inkscape:pagecheckerboard="0"
     inkscape:deskcolor="#505050"
     inkscape:document-units="mm"
     inkscape:zoom="0.78144618"
     inkscape:cx="438.92978"
     inkscape:cy="541.30408"
     inkscape:window-width="1904"
     inkscape:window-height="1115"
     inkscape:window-x="26"
     inkscape:window-y="23"
     inkscape:window-maximized="0"
     inkscape:current-layer="layer1"
     showgrid="false" /><defs
     id="defs1"><rect
       x="847.98591"
       y="54.285033"
       width="685.13056"
       height="685.13073"
       id="rect379" /></defs><g
     inkscape:label="Layer 1"
     inkscape:groupmode="layer"
     id="layer1"><circle
       style="fill:#ffffff;stroke-width:0.252162"
       id="path1188"
       cx="105"
       cy="105"
       r="100.07056" /><path
       style="fill:#fe6700;stroke-width:0.21"
       d="M 96.495,205.02228 C 93.456537,204.78344 88.047057,203.9966 84.42,203.26591 67.636867,199.88488 51.021459,192.52276 39.585,183.39999 36.607828,181.02512 28.964517,173.38181 26.58965,170.40464 16.011676,157.14392 8.0314971,137.35401 5.4192895,117.90464 c -0.43864,-3.26592 -0.4794798,-4.36596 -0.4794798,-12.915 0,-8.549042 0.04084,-9.649079 0.4794798,-12.915003 C 8.0314971,72.625264 16.011676,52.83536 26.58965,39.574637 28.964517,36.597465 36.607828,28.954154 39.585,26.579287 52.845723,16.001313 72.635627,8.0211342 92.085,5.4089266 95.350924,4.9702866 96.450961,4.9294468 105,4.9294468 c 8.54904,0 9.64908,0.04084 12.915,0.4794798 19.44937,2.6122076 39.23928,10.5923864 52.5,21.1703604 2.97717,2.374867 10.62048,10.018178 12.99535,12.99535 10.57797,13.260723 18.55815,33.050627 21.17036,52.5 0.43864,3.265924 0.47948,4.365961 0.47948,12.915003 0,8.54904 -0.0408,9.64908 -0.47948,12.915 -2.61221,19.44937 -10.59239,39.23928 -21.17036,52.5 -2.37487,2.97717 -10.01818,10.62048 -12.99535,12.99535 -13.23168,10.55481 -33.13124,18.58806 -52.395,21.15132 -3.01072,0.40061 -4.58005,0.46712 -11.97,0.50728 -4.67775,0.0254 -8.9775,0.009 -9.555,-0.0363 z m 19.58452,-12.54509 c 17.54214,-2.34028 34.72544,-9.25552 46.56548,-18.73978 2.92638,-2.34413 8.44649,-7.85863 11.0037,-10.99253 9.40861,-11.53037 16.37866,-28.705 18.75166,-46.20524 0.41085,-3.02993 0.47078,-4.40106 0.47724,-10.92 0.01,-9.808626 -0.46935,-14.061204 -2.53144,-22.470003 -3.21981,-13.12978 -9.22301,-25.991746 -16.28645,-34.894014 -2.06019,-2.596513 -7.7155,-8.404208 -8.10202,-8.320326 -0.15038,0.03264 -1.77971,1.90209 -3.62073,4.15434 l -3.34731,4.095 0.8094,0.84 c 0.44516,0.462 1.20865,1.5015 1.69663,2.31 0.48799,0.8085 1.77784,2.78245 2.86634,4.386556 1.0885,1.604103 2.15321,3.257853 2.36602,3.675 0.21282,0.417144 0.72093,1.265573 1.12913,1.885398 0.82755,1.256561 4.45034,10.171281 4.76789,11.732518 0.34029,1.673013 0.48042,15.030197 0.23301,22.210528 -0.12735,3.696 -0.41984,9.413253 -0.64998,12.705003 -0.23015,3.29175 -0.56285,9.62325 -0.73935,14.07 -0.45988,11.58622 -0.89726,16.515 -2.11514,23.835 -1.58684,9.53765 -2.85179,14.08768 -5.18722,18.65848 -0.82484,1.61433 -1.45306,2.48479 -2.86131,3.96462 -3.77183,3.96355 -7.37129,5.63081 -14.20007,6.57743 -3.4635,0.48012 -8.57281,0.32909 -10.81338,-0.31965 -3.43317,-0.99403 -6.64096,-2.95064 -9.86053,-6.01448 -5.04239,-4.79849 -7.66127,-10.15396 -8.74112,-17.87507 -0.44013,-3.14707 -0.29899,-10.15945 0.27166,-13.49633 l 0.37708,-2.205 1.04814,0.0551 c 0.57648,0.0303 4.31754,0.0642 8.31345,0.0753 l 7.26531,0.0202 0.13448,3.49474 c 0.074,1.92211 0.27614,4.72325 0.44928,6.22475 0.89816,7.78879 1.4704,9.10801 4.67152,10.76946 1.75161,0.90912 3.64027,1.37309 4.73649,1.16358 2.15692,-0.41224 4.54587,-2.34502 6.00304,-4.85675 3.39619,-5.85404 4.94299,-14.7251 6.12219,-35.11129 0.11692,-2.02125 0.26939,-4.19475 0.33884,-4.83 0.10283,-0.94069 0.0536,-1.244 -0.2651,-1.63464 l -0.39135,-0.47964 -0.93669,1.21464 c -0.90585,1.17465 -2.85994,3.25791 -7.25331,7.73278 -1.155,1.17642 -2.81809,2.60724 -3.69575,3.17959 -3.8035,2.48038 -8.16356,2.95156 -14.00714,1.51373 -6.5669,-1.61582 -11.30857,-5.86962 -15.07221,-13.52146 -0.62491,-1.2705 -1.4036,-3.10761 -1.73043,-4.08246 -0.32683,-0.97486 -0.68204,-1.79668 -0.78935,-1.82628 -0.20138,-0.0555 -15.970587,19.13135 -16.390872,19.94329 -0.129663,0.2505 -0.299292,1.68395 -0.376957,3.18545 -0.672913,13.00986 -2.819357,26.38732 -5.306956,33.075 -1.384616,3.72241 -2.669957,5.93663 -4.660263,8.0281 -3.772367,3.96411 -7.376666,5.63334 -14.200072,6.57638 -3.522903,0.48688 -8.382538,0.34846 -10.71,-0.30508 -1.949298,-0.54734 -4.41,-1.69249 -4.41,-2.05229 0,-0.13634 2.88225,-3.76457 6.405,-8.06274 3.52275,-4.29816 6.533392,-7.99724 6.690317,-8.22018 0.278247,-0.3953 0.231168,-0.40171 -1.900828,-0.2589 -2.087828,0.13986 -2.239558,0.12117 -3.373913,-0.41546 -1.310057,-0.61976 -2.222184,-1.61621 -2.916759,-3.18642 -0.649786,-1.46894 -1.461331,-6.11124 -1.584645,-9.06466 -0.09306,-2.22884 -0.05735,-2.65362 0.264843,-3.15 0.204824,-0.31556 4.380955,-5.71185 9.280289,-11.99175 4.899336,-6.2799 9.088162,-11.71365 9.308504,-12.075 0.321464,-0.52718 0.399397,-1.05119 0.39442,-2.652 -0.0072,-2.31568 0.163252,-2.38643 -2.089599,0.86734 -1.747511,2.52391 -5.514127,6.33906 -7.583377,7.68109 -3.817605,2.47593 -8.169319,2.94444 -14.007139,1.50803 -6.638192,-1.63336 -11.362188,-5.91099 -15.164316,-13.73146 -1.920158,-3.94952 -3.230848,-8.67942 -3.765667,-13.589228 -0.286348,-2.628762 -0.28613,-10.353015 4.2e-4,-13.306804 1.104719,-11.389333 5.502457,-23.954855 10.106995,-28.87841 2.535137,-2.710777 6.132643,-5.226589 10.355499,-7.241821 5.245867,-2.503433 7.368245,-3.029311 12.220226,-3.027897 5.141064,0.0015 8.310025,0.795314 12.181455,3.051424 2.441584,1.422855 3.399249,2.286148 4.418104,3.982731 0.416172,0.693 1.740568,2.72003 2.943108,4.504509 1.202538,1.784481 2.357582,3.579981 2.566761,3.99 0.209178,0.410021 0.714312,1.25262 1.122521,1.872446 0.898596,1.364439 4.473926,10.259017 4.801999,11.946241 0.148014,0.761214 0.242258,4.505886 0.255242,10.141813 l 0.02058,8.935007 -8.177579,10.489999 c -4.497666,5.76949 -8.608416,11.04412 -9.135,11.7214 l -0.957421,1.23142 -0.06069,3.80858 c -0.169413,10.63128 -0.318539,12.82591 -1.214854,17.87859 -0.286846,1.617 -0.661889,3.83775 -0.833427,4.935 -0.171539,1.09725 -0.53045,2.96362 -0.79758,4.1475 -0.267131,1.18387 -0.431187,2.14749 -0.364571,2.14136 0.06662,-0.006 4.584479,-5.47641 10.039691,-12.15619 l 9.918566,-12.14506 0.09573,-5.48249 c 0.05265,-3.01537 0.156658,-5.58108 0.23113,-5.70158 0.150213,-0.24305 0.529578,-6.41706 0.644782,-10.49354 0.19434,-6.876803 0.44465,-9.842014 0.899417,-10.654636 0.08996,-0.160757 3.463926,-4.526409 7.497696,-9.70145 6.23776,-8.00261 7.34495,-9.326925 7.40658,-8.859041 0.0399,0.302568 -0.0268,1.022622 -0.14813,1.600122 -1.01048,4.809838 -1.32875,7.726749 -1.40922,12.915 -0.0763,4.920704 0.1779,8.993137 0.74734,11.972035 0.59554,3.11539 0.71542,3.5895 0.90744,3.58881 0.0934,-4.2e-4 2.35446,-2.66252 5.02465,-5.915975 l 4.85488,-5.915364 -0.0524,-2.119331 c -0.0288,-1.16563 -0.10812,-2.209523 -0.17625,-2.31976 -0.21263,-0.34405 -0.0454,-4.541381 0.27062,-6.792723 0.34966,-2.49093 1.74933,-6.932233 3.00068,-9.521505 0.47079,-0.974153 1.52232,-2.593062 2.33673,-3.597575 3.35378,-4.136612 6.9096,-6.286815 9.88272,-5.976063 1.84016,0.192337 4.44091,1.104199 5.86875,2.057679 0.71605,0.478157 1.36933,0.781716 1.46236,0.679507 0.0925,-0.101604 3.01016,-3.663372 6.48373,-7.915042 3.80239,-4.654136 6.27078,-7.847077 6.20299,-8.023743 -0.14841,-0.386743 -2.93602,-2.009881 -4.84415,-2.820586 -0.83313,-0.35397 -2.15612,-0.788552 -2.94,-0.96574 -1.94899,-0.440544 -8.76848,-0.648089 -10.6784,-0.324985 -1.98903,0.336487 -4.4362,1.177002 -5.43343,1.866182 -0.52798,0.364883 -4.39548,5.146743 -10.70543,13.236417 -5.43336,6.965837 -9.91348,12.561226 -9.95582,12.434201 -0.11221,-0.336619 1.53024,-5.406786 2.62117,-8.091439 1.16135,-2.857934 3.25024,-6.859498 4.16572,-7.98 2.71431,-3.322193 6.4118,-6.127058 11.11765,-8.433713 l 2.37934,-1.166298 6.85312,-8.78985 c 3.76922,-4.834419 6.90682,-8.929782 6.97245,-9.100806 0.29407,-0.76634 -9.25056,-4.68371 -16.50664,-6.77476 -11.31471,-3.26066 -21.49576,-4.386652 -32.865005,-3.634762 -17.912101,1.184592 -37.877162,8.662402 -50.925,19.073694 -2.433852,1.94205 -7.407309,6.775232 -9.756674,9.481487 -9.314972,10.730011 -16.78057,27.597427 -19.518865,44.1 -1.422733,8.574224 -1.54269,19.285553 -0.311614,27.825003 2.521918,17.49347 10.797899,36.43579 20.499909,46.92081 l 1.444248,1.5608 2.57583,-3.29684 c 1.416707,-1.81326 2.673508,-3.23647 2.792891,-3.16269 0.119383,0.0738 0.572536,0.90723 1.007005,1.85211 0.456932,0.99373 1.178276,2.12707 1.711107,2.68841 0.50664,0.53375 1.913413,2.02248 3.126163,3.30828 1.21275,1.2858 2.8665,2.81737 3.675,3.40348 0.8085,0.58612 1.548202,1.13622 1.643783,1.22244 0.09558,0.0862 -0.68272,1.21901 -1.729555,2.5173 -1.046836,1.2983 -1.85152,2.44438 -1.788186,2.54686 0.257294,0.41631 5.681531,3.49057 9.223958,5.22781 11.222803,5.50376 23.256784,8.84577 35.805,9.94359 0.51975,0.0455 4.158005,0.0582 8.085005,0.0282 5.14785,-0.0393 7.85832,-0.15034 9.71452,-0.39798 z M 44.942058,158.90714 c -0.580873,-1.31473 -1.372245,-4.17373 -1.816504,-6.5625 -0.560524,-3.01392 -0.530838,-11.57469 0.0517,-14.91 l 0.40346,-2.31 1.047142,0.0539 c 0.575927,0.0296 4.331017,0.0769 8.344644,0.105 l 7.297502,0.0511 0.03327,2.415 c 0.01829,1.32825 0.01884,2.58362 0.0013,2.78972 -0.02911,0.33887 -14.637203,19.26028 -14.86982,19.26028 -0.0541,0 -0.275814,-0.40163 -0.492694,-0.8925 z M 72.0368,155.02076 c 1.406972,-0.96863 2.760383,-2.73608 3.342148,-4.36459 l 0.222035,-0.62153 -0.472992,0.55847 c -2.047542,2.41756 -3.927415,4.79629 -3.789523,4.79515 0.09159,-8.4e-4 0.405842,-0.16614 0.698332,-0.3675 z m -5.706614,-49.8406 c 0.734351,-0.24992 2.023615,-0.91485 2.86503,-1.47762 7.635867,-5.107185 11.05271,-18.192642 7.640149,-29.259421 -2.417062,-7.838424 -7.725887,-12.923482 -13.492179,-12.923482 -1.489828,0 -1.892908,0.125343 -4.473275,1.391019 -3.484895,1.70935 -7.40553,7.328343 -9.066508,12.993981 -1.089079,3.714877 -1.386303,5.901609 -1.370089,10.08 0.01306,3.364225 0.07403,4.003354 0.554295,5.810603 1.945489,7.320842 6.586612,12.66375 12.017391,13.83454 1.274368,0.27473 3.831089,0.0589 5.325186,-0.44962 z m 74.760004,0 c 2.62287,-0.89264 5.59046,-3.32916 7.4142,-6.08739 2.90979,-4.400785 4.37646,-9.629615 4.37477,-15.596501 -0.002,-7.187107 -2.12904,-13.372613 -6.1479,-17.878673 -0.842,-0.944068 -0.9696,-1.017366 -1.29743,-0.74529 -0.19997,0.165965 -4.8151,5.740134 -10.25585,12.387041 -5.44074,6.64691 -10.26661,12.534791 -10.72416,13.084178 l -0.83191,0.998888 0.36368,1.311112 c 0.5571,2.008499 1.64259,4.359077 2.90277,6.285834 2.36133,3.610381 5.47481,5.957041 8.87664,6.690421 1.27437,0.27473 3.83109,0.0589 5.32519,-0.44962 z"
       id="path1186" /></g></svg>
